<?xml version="1.0" standalone="no"?>
<!DOCTYPE svg PUBLIC "-//W3C//DTD SVG 20010904//EN"
 "http://www.w3.org/TR/2001/REC-SVG-20010904/DTD/svg10.dtd">
<svg version="1.0" xmlns="http://www.w3.org/2000/svg"
 width="300.000000pt" height="300.000000pt" viewBox="0 0 300.000000 300.000000"
 preserveAspectRatio="xMidYMid meet">
<metadata>
Created by potrace 1.10, written by Peter Selinger 2001-2011
</metadata>
<g transform="translate(0.000000,300.000000) scale(0.100000,-0.100000)"
fill="#000000" stroke="none">
<path d="M1353 2463 c-12 -17 -19 -52 -21 -100 -4 -69 -3 -74 26 -103 37 -36
43 -37 78 -7 29 26 42 95 30 162 -14 72 -79 100 -113 48z m72 -15 c2 -7 6 -50
9 -95 l5 -83 -38 0 -38 0 3 83 c2 45 3 88 4 95 0 6 11 12 25 12 14 0 27 -6 30
-12z"/>
<path d="M980 2322 c-27 -27 -29 -33 -19 -61 15 -41 123 -141 154 -141 27 0
65 42 65 72 0 38 -95 136 -148 152 -17 6 -29 0 -52 -22z m120 -67 l64 -65 -24
-25 -25 -24 -67 66 c-70 67 -77 80 -56 101 22 22 43 12 108 -53z"/>
<path d="M1745 2340 c-11 -4 -46 -33 -77 -63 -46 -43 -58 -62 -58 -85 0 -33
38 -72 71 -72 10 0 48 29 84 64 51 50 65 70 65 93 0 50 -41 81 -85 63z m53
-32 c21 -21 14 -34 -55 -101 l-68 -66 -25 24 -24 25 64 65 c65 65 86 75 108
53z"/>
<path d="M1310 2204 c-20 -7 -60 -24 -89 -38 -43 -20 -98 -85 -119 -142 -12
-30 -22 -62 -22 -70 0 -18 -24 -18 -40 1 -9 11 -35 15 -105 15 -89 0 -95 -1
-114 -26 -28 -36 -26 -58 5 -83 38 -30 169 -30 207 -1 14 11 27 20 30 20 3 0
8 -20 11 -44 15 -98 78 -186 133 -186 11 0 14 -6 8 -22 -35 -110 -39 -136 -27
-175 18 -60 53 -105 102 -133 l45 -25 348 -3 c213 -2 369 1 405 8 118 21 192
107 200 233 4 64 1 79 -22 124 -14 28 -46 68 -71 88 -25 21 -48 49 -52 64 -21
89 -98 184 -180 222 -61 28 -202 36 -264 14 -52 -19 -49 -19 -49 10 0 36 -61
99 -122 125 -51 22 -185 37 -218 24z m204 -53 c27 -11 64 -38 84 -58 l35 -37
-24 -16 c-78 -50 -154 -153 -173 -232 -5 -22 -12 -28 -34 -28 -37 0 -131 -45
-167 -81 -29 -27 -32 -28 -53 -13 -29 20 -59 80 -73 143 -13 61 1 146 34 210
62 122 233 173 371 112z m405 -138 c71 -23 137 -83 172 -158 16 -33 29 -70 29
-82 0 -13 8 -24 19 -28 65 -20 121 -112 121 -199 0 -82 -39 -150 -110 -190
l-55 -31 -375 0 c-368 0 -376 0 -416 22 -118 63 -119 238 -3 319 49 33 104 53
152 54 34 0 37 2 37 28 0 31 38 116 71 161 74 101 229 146 358 104z m-889
-108 l0 -36 -97 3 c-85 3 -98 5 -101 21 -8 42 3 47 103 47 l95 0 0 -35z"/>
<path d="M1075 1668 c-32 -17 -105 -90 -121 -120 -26 -50 26 -109 78 -89 26
10 110 95 127 128 16 31 14 41 -14 68 -27 27 -40 30 -70 13z m56 -34 c17 -15
15 -20 -39 -80 -31 -35 -65 -67 -75 -70 -21 -7 -47 12 -47 34 0 16 117 131
134 132 5 0 17 -7 27 -16z"/>
<path d="M1820 1113 c-19 -3 -43 -12 -53 -21 -15 -13 -22 -14 -37 -4 -50 31
-113 3 -126 -55 -3 -16 -12 -49 -21 -76 l-15 -47 -31 32 c-18 18 -27 35 -22
37 27 10 55 47 55 73 0 47 -36 62 -128 54 -42 -4 -93 -6 -113 -6 -23 0 -42 -6
-54 -20 -23 -25 -30 -25 -57 0 -28 26 -66 25 -95 -2 l-23 -21 -23 21 c-29 27
-58 28 -82 2 -18 -20 -18 -25 4 -168 25 -160 31 -181 56 -205 24 -24 55 -21
87 10 l28 27 29 -28 c44 -42 89 -24 122 49 l18 40 0 -35 c1 -20 8 -46 18 -59
16 -24 18 -24 141 -18 110 5 127 8 148 28 l24 22 39 -27 c38 -27 41 -27 72
-12 28 14 34 14 52 1 30 -21 61 -19 83 6 17 19 19 35 16 139 -2 98 0 119 13
124 13 5 15 -11 15 -113 0 -105 2 -121 21 -145 24 -31 59 -34 84 -6 l18 20 27
-25 c25 -24 59 -33 73 -19 3 4 74 7 156 8 134 1 151 3 171 21 l22 20 20 -25
c27 -34 59 -36 88 -5 l23 24 -22 59 -21 59 21 48 c25 57 22 109 -11 153 -26
36 -80 53 -158 52 -31 0 -75 3 -97 8 -22 4 -65 4 -95 -1 -30 -5 -75 -8 -99 -7
-45 0 -81 -20 -81 -46 0 -7 -14 1 -30 18 -24 23 -37 29 -58 25 -15 -3 -35 -1
-46 5 -22 12 -96 17 -146 11z m-741 -144 l18 -94 11 40 c7 22 17 66 23 98 12
57 13 58 43 55 33 -3 29 7 65 -163 7 -36 9 -37 14 -15 3 14 12 58 18 99 10 60
17 75 36 84 13 5 26 7 29 4 4 -3 1 -34 -5 -69 -43 -233 -51 -271 -55 -275 -2
-2 -16 -5 -32 -6 -29 -2 -29 -1 -50 98 -12 55 -23 102 -24 105 -1 3 -12 -42
-24 -100 -19 -95 -24 -105 -45 -108 -13 -2 -27 0 -32 5 -5 5 -20 76 -34 158
-14 83 -28 158 -31 167 -4 12 2 17 23 20 15 2 29 0 31 -3 1 -4 11 -49 21 -100z
m463 106 c2 -3 3 -18 0 -33 -4 -28 -5 -28 -58 -24 l-54 4 0 -46 c0 -45 1 -47
28 -45 60 5 72 0 72 -26 0 -23 -3 -25 -50 -25 l-50 0 0 -50 0 -50 58 0 c59 0
59 0 60 -30 l1 -30 -74 0 c-40 0 -80 -3 -89 -6 -14 -5 -16 14 -16 174 l0 181
38 4 c61 6 128 7 134 2z m183 -72 c9 -43 28 -122 41 -175 13 -53 24 -99 24
-102 0 -3 -16 -6 -35 -6 -32 0 -35 2 -35 30 0 29 -2 30 -44 30 -40 0 -44 -2
-49 -29 -5 -24 -11 -29 -32 -27 -14 2 -27 5 -29 7 -2 2 15 79 38 171 42 173
41 171 92 177 7 0 19 -32 29 -76z m245 48 c0 -27 -3 -30 -37 -33 l-37 -3 3
-147 3 -148 -33 0 -32 0 7 110 c3 60 3 128 0 150 -6 38 -9 40 -40 40 -31 0
-34 3 -34 30 l0 30 100 0 100 0 0 -29z m430 -1 l0 -30 -61 0 c-52 0 -60 -2
-55 -16 3 -9 6 -29 6 -46 0 -26 3 -30 22 -25 38 10 68 -3 68 -29 0 -22 -4 -24
-47 -24 l-48 0 1 -47 1 -48 57 -3 c55 -3 56 -4 56 -32 l0 -30 -69 0 c-38 0
-76 -2 -84 -6 -12 -4 -15 19 -19 138 -2 79 -3 162 0 186 l4 42 84 0 84 0 0
-30z m-349 -52 l-2 -68 40 0 41 0 0 70 0 70 30 0 30 0 -4 -177 -4 -178 -29 -3
-28 -3 0 81 0 80 -39 0 -39 0 6 -41 c3 -23 3 -57 0 -76 -5 -30 -9 -34 -32 -31
l-26 3 -2 165 c-1 90 1 168 4 173 3 4 17 7 31 5 25 -3 26 -5 23 -70z m523 58
c23 -9 37 -24 45 -46 17 -49 14 -73 -15 -116 l-26 -38 30 -67 30 -67 -26 -7
c-31 -8 -43 6 -68 76 -13 35 -23 49 -37 49 -16 0 -18 -7 -16 -57 l3 -58 -32
-3 -32 -3 0 175 0 176 55 0 c31 0 71 -6 89 -14z m-776 -78 c7 -7 12 -39 12
-77 -1 -62 -2 -65 -15 -40 -17 32 -31 129 -18 129 5 0 14 -5 21 -12z m-248
-148 c-9 -16 -17 -19 -43 -15 -44 8 -52 23 -15 28 7 2 24 10 38 20 21 15 25
15 28 3 2 -8 -2 -24 -8 -36z m848 8 c-2 -18 -10 -22 -35 -23 -44 -1 -51 22
-10 34 47 14 49 13 45 -11z"/>
<path d="M1661 907 c-16 -65 -14 -72 14 -72 24 0 25 2 19 45 -10 70 -20 78
-33 27z"/>
<path d="M2490 959 c0 -66 10 -73 54 -38 42 33 32 73 -22 88 l-32 10 0 -60z"/>
<path d="M578 1096 c-13 -6 -32 -28 -43 -49 -22 -41 -33 -46 -42 -19 -13 37
-56 72 -88 72 -61 0 -66 -18 -66 -206 1 -132 4 -172 16 -191 20 -31 68 -31 89
-1 13 18 26 22 63 23 40 0 52 -4 72 -28 17 -20 29 -26 45 -21 45 13 51 29 56
147 l5 112 19 -28 c12 -18 20 -52 23 -100 6 -86 22 -117 62 -117 43 0 61 28
65 101 2 43 16 97 40 161 20 54 36 104 36 112 0 16 -37 46 -57 46 -7 0 -28
-14 -48 -31 l-36 -32 -29 28 c-25 24 -38 28 -94 30 -35 2 -75 -3 -88 -9z m70
-203 l-3 -188 -27 -3 -28 -3 -1 118 c0 110 -1 115 -14 82 -7 -20 -19 -61 -26
-92 -11 -53 -14 -57 -41 -57 -17 0 -28 5 -28 13 0 18 -41 150 -49 159 -3 4 -5
-42 -3 -102 l3 -110 -30 0 -31 0 0 181 0 180 37 -3 38 -3 32 -95 c18 -51 34
-87 37 -80 2 8 12 40 22 70 35 111 41 120 79 120 l35 0 -2 -187z m79 179 c11
-7 28 -42 55 -112 9 -23 11 -20 37 45 26 65 31 70 61 73 28 3 32 1 25 -15 -56
-130 -79 -205 -83 -270 -4 -73 -4 -73 -33 -73 l-29 0 0 70 c0 57 -7 88 -36
163 -20 50 -40 96 -45 102 -5 5 -9 13 -9 17 0 10 41 10 57 0z"/>
</g>
</svg>
